<?xml version="1.0" standalone="no"?>
<!DOCTYPE svg PUBLIC "-//W3C//DTD SVG 20010904//EN"
 "http://www.w3.org/TR/2001/REC-SVG-20010904/DTD/svg10.dtd">
<svg version="1.0" xmlns="http://www.w3.org/2000/svg"
 width="430.000000pt" height="430.000000pt" viewBox="0 0 430.000000 430.000000"
 preserveAspectRatio="xMidYMid meet">
<metadata>
Created by potrace 1.14, written by Peter Selinger 2001-2017
</metadata>
<g transform="translate(0.000000,430.000000) scale(0.100000,-0.100000)"
fill="#000000" stroke="none">
<path d="M310 4185 l-305 -113 -3 -466 c-1 -300 1 -466 8 -466 5 0 35 12 67
26 49 21 437 183 998 416 66 27 156 64 200 83 44 18 402 167 795 330 393 163
717 299 719 301 2 2 -486 4 -1085 3 l-1089 -1 -305 -113z"/>
<path d="M2995 4250 c-376 -128 -747 -265 -1395 -513 -179 -68 -462 -175 -630
-236 -477 -175 -482 -177 -545 -233 -60 -54 -86 -95 -275 -436 -104 -187 -113
-208 -118 -267 -4 -61 -3 -67 22 -90 19 -17 26 -34 26 -61 0 -33 2 -36 22 -29
70 23 93 18 211 -41 l115 -58 94 39 c99 41 736 315 803 346 22 10 119 53 215
95 317 138 2261 990 2463 1079 200 88 225 94 280 70 16 -7 17 6 17 189 l0 196
-582 -1 -583 -1 -140 -48z m-2296 -1299 c-6 -20 -44 -124 -84 -231 -40 -107
-83 -223 -95 -257 -13 -35 -27 -63 -32 -63 -12 0 -4 27 89 302 45 135 83 256
83 269 0 12 8 31 17 41 17 19 17 19 25 -3 5 -13 4 -37 -3 -58z"/>
<path d="M4085 3731 c-375 -134 -644 -239 -1559 -604 -512 -204 -950 -385
-975 -402 -65 -43 -99 -94 -248 -362 -181 -329 -174 -312 -180 -395 l-6 -73
34 -12 c19 -7 111 -53 204 -103 94 -49 178 -90 187 -90 26 0 594 255 1783 803
430 197 878 403 928 426 l47 21 0 430 c0 338 -3 430 -12 430 -7 -1 -98 -31
-203 -69z m-2281 -1313 c-4 -6 -2 -13 4 -17 6 -4 -20 -87 -67 -216 -43 -115
-92 -248 -109 -295 -62 -170 -29 -39 44 175 41 121 75 229 76 240 0 19 26 112
35 128 2 4 9 5 14 1 5 -3 6 -10 3 -16z"/>
<path d="M4015 2134 c-569 -253 -664 -298 -715 -335 -41 -31 -91 -106 -210
-314 -56 -99 -120 -209 -141 -245 -54 -92 -79 -153 -86 -208 l-5 -48 87 -49
c102 -58 127 -85 123 -134 -3 -41 10 -48 51 -27 42 22 74 20 137 -9 30 -14 63
-25 74 -25 11 0 233 105 495 234 l475 234 0 526 c0 289 -1 526 -2 525 -2 0
-129 -57 -283 -125z m-421 -638 c15 -23 11 -37 -90 -318 -58 -161 -107 -299
-109 -305 -7 -22 -25 -14 -25 10 0 12 41 141 91 287 51 150 90 280 90 299 -1
27 10 49 25 51 1 0 9 -11 18 -24z"/>
<path d="M4262 469 c-36 -54 -76 -189 -70 -236 3 -27 6 -28 55 -28 l53 0 0
158 c0 86 -1 157 -2 156 -2 0 -18 -23 -36 -50z"/>
</g>
</svg>
